<svg width="196" height="36" viewBox="0 0 196 36" fill="none" xmlns="http://www.w3.org/2000/svg">
<path d="M183.516 35.739H178.974L184.346 27.1042V26.8434L178.974 18.2607H183.568L187.435 24.4694H187.695L191.458 18.2607H196L190.653 26.8173V27.0781L196 35.739H191.406L187.539 29.5042H187.279L183.516 35.739Z" fill="#DFE0DF"/>
<path d="M169.855 36C168.108 36 166.611 35.6348 165.365 34.9043C164.137 34.1565 163.185 33.113 162.51 31.7739C161.853 30.4174 161.524 28.8261 161.524 27C161.524 25.1739 161.853 23.5913 162.51 22.2522C163.185 20.8957 164.137 19.8522 165.365 19.1217C166.611 18.3739 168.108 18 169.855 18C171.586 18 173.031 18.287 174.19 18.8609C175.367 19.4348 176.258 20.2522 176.863 21.313C177.469 22.3565 177.772 23.6 177.772 25.0435V25.2783H173.619V25.1478C173.619 23.8957 173.333 23.0261 172.762 22.5391C172.191 22.0348 171.214 21.7826 169.83 21.7826C168.843 21.7826 168.047 21.9304 167.442 22.2261C166.836 22.5217 166.386 23.0435 166.092 23.7913C165.815 24.5391 165.677 25.6087 165.677 27C165.677 28.3739 165.815 29.4435 166.092 30.2087C166.386 30.9565 166.836 31.4783 167.442 31.7739C168.047 32.0696 168.843 32.2174 169.83 32.2174C171.214 32.2174 172.191 31.9739 172.762 31.487C173.333 30.9826 173.619 30.1043 173.619 28.8522V28.7217H177.772V28.9565C177.772 30.4 177.469 31.6522 176.863 32.713C176.258 33.7565 175.367 34.5652 174.19 35.1391C173.031 35.713 171.586 36 169.855 36Z" fill="#DFE0DF"/>
<path d="M158.49 35.739H154.597V18.2607H158.49V35.739Z" fill="#DFE0DF"/>
<path d="M147.019 35.739H143.126V18.2607H147.019V35.739ZM152.625 21.7825H137.52V18.2607H152.625V21.7825Z" fill="#DFE0DF"/>
<path d="M129.823 36C128.127 36 126.725 35.7739 125.618 35.3217C124.511 34.8696 123.689 34.2 123.152 33.313C122.616 32.4261 122.348 31.3391 122.348 30.0522V29.713H126.163V29.9739C126.163 30.6174 126.267 31.1217 126.475 31.487C126.682 31.8348 127.054 32.087 127.591 32.2435C128.144 32.3826 128.949 32.4522 130.004 32.4522C131.112 32.4522 131.847 32.3304 132.211 32.087C132.574 31.8435 132.756 31.4261 132.756 30.8348C132.756 30.4348 132.695 30.113 132.574 29.8696C132.47 29.6261 132.228 29.4261 131.847 29.2696C131.467 29.0957 130.87 28.9478 130.056 28.8261L126.994 28.2783C125.886 28.087 124.978 27.7739 124.268 27.3391C123.576 26.887 123.066 26.3304 122.737 25.6696C122.426 24.9913 122.27 24.2 122.27 23.2957C122.27 22.3913 122.495 21.5391 122.945 20.7391C123.412 19.9391 124.156 19.287 125.177 18.7826C126.215 18.2609 127.556 18 129.2 18C130.861 18 132.202 18.2609 133.223 18.7826C134.261 19.3043 135.022 20.0261 135.507 20.9478C135.991 21.8522 136.233 22.887 136.233 24.0522V24.2609H132.392V23.9739C132.392 23.3652 132.297 22.887 132.107 22.5391C131.916 22.1913 131.579 21.9391 131.094 21.7826C130.61 21.6261 129.935 21.5478 129.07 21.5478C127.963 21.5478 127.193 21.6783 126.76 21.9391C126.345 22.1826 126.137 22.5826 126.137 23.1391C126.137 23.5043 126.206 23.8 126.345 24.0261C126.483 24.2348 126.725 24.4 127.072 24.5217C127.435 24.6435 127.954 24.7739 128.629 24.913L131.717 25.513C132.929 25.7391 133.889 26.1043 134.598 26.6087C135.325 27.0957 135.844 27.687 136.156 28.3826C136.467 29.0783 136.623 29.8522 136.623 30.7043C136.623 31.6261 136.398 32.4957 135.948 33.313C135.498 34.113 134.78 34.7652 133.794 35.2696C132.807 35.7565 131.484 36 129.823 36Z" fill="#DFE0DF"/>
<path d="M119 35.739H115.107V18.2607H119V35.739Z" fill="#DFE0DF"/>
<path d="M107.53 35.739H103.636V18.2607H107.53V35.739ZM113.136 21.7825H98.0302V18.2607H113.136V21.7825Z" fill="#DFE0DF"/>
<path d="M86.0417 35.739H82.1485V18.2607H90.1425C91.5268 18.2607 92.6947 18.4694 93.6464 18.8868C94.6154 19.3042 95.3508 19.9129 95.8525 20.7129C96.3543 21.4955 96.6052 22.452 96.6052 23.5825C96.6052 24.5216 96.4495 25.339 96.138 26.0347C95.8266 26.7129 95.3421 27.252 94.6846 27.652C94.0444 28.0347 93.2225 28.2781 92.2189 28.3825V28.6434C92.9629 28.8694 93.5512 29.2086 93.9838 29.6607C94.4164 30.1129 94.7971 30.6781 95.1258 31.3564L97.332 35.739H92.7899L90.7395 31.6955C90.4799 31.1912 90.2204 30.7825 89.9608 30.4694C89.7186 30.139 89.4158 29.9042 89.0524 29.7651C88.7064 29.6086 88.2219 29.5303 87.599 29.5303H86.0417V35.739ZM86.0417 21.7825V26.2955H90.3242C91.2413 26.2955 91.8728 26.1303 92.2189 25.7999C92.565 25.4694 92.738 24.8781 92.738 24.026C92.738 23.1912 92.565 22.6086 92.2189 22.2781C91.8728 21.9477 91.2413 21.7825 90.3242 21.7825H86.0417Z" fill="#DFE0DF"/>
<path d="M65.8254 35.739H61.7765L68.1873 18.2607H73.8454L80.2562 35.739H76.0256L72.366 25.6434L71.0942 21.7042H70.8347L69.511 25.6434L65.8254 35.739ZM76.8561 31.852H65.3323V28.3564H76.8561V31.852Z" fill="#DFE0DF"/>
<path d="M35.9258 18L17.9967 0H17.946L0.0169301 18H0V36H35.9427V18H35.9258Z" fill="#DFE0DF"/>
<path d="M53.8971 18L35.9681 0H35.9173L17.9883 18H17.9713V36H53.914V18H53.8971Z" fill="url(#paint0_linear_78_901)"/>
<defs>
<linearGradient id="paint0_linear_78_901" x1="46.6132" y1="11.25" x2="17.9324" y2="35.9548" gradientUnits="userSpaceOnUse">
<stop stop-color="#DE4A28"/>
<stop offset="1" stop-color="#DFE0DF"/>
</linearGradient>
</defs>
</svg>
